<?xml version="1.0" encoding="UTF-8" standalone="no"?>
<!DOCTYPE svg PUBLIC "-//W3C//DTD SVG 1.1//EN"
 "http://www.w3.org/Graphics/SVG/1.1/DTD/svg11.dtd">
<!-- Generated by graphviz version 12.2.0 (0)
 -->
<!-- Title: Direct_Play Pages: 1 -->
<svg width="207pt" height="221pt"
 viewBox="0.00 0.00 206.88 221.00" xmlns="http://www.w3.org/2000/svg" xmlns:xlink="http://www.w3.org/1999/xlink">
<g id="graph0" class="graph" transform="scale(1 1) rotate(0) translate(4 217)">
<title>Direct_Play</title>
<polygon fill="white" stroke="none" points="-4,4 -4,-217 202.88,-217 202.88,4 -4,4"/>
<!-- request -->
<g id="node1" class="node">
<title>request</title>
<path fill="none" stroke="black" d="M128.5,-213C128.5,-213 30.75,-213 30.75,-213 24.75,-213 18.75,-207 18.75,-201 18.75,-201 18.75,-189 18.75,-189 18.75,-183 24.75,-177 30.75,-177 30.75,-177 128.5,-177 128.5,-177 134.5,-177 140.5,-183 140.5,-189 140.5,-189 140.5,-201 140.5,-201 140.5,-207 134.5,-213 128.5,-213"/>
<text text-anchor="middle" x="79.62" y="-190.72" font-family="Times New Roman,serif" font-size="12.00">Client Requests Video</text>
</g>
<!-- server -->
<g id="node2" class="node">
<title>server</title>
<path fill="none" stroke="black" d="M137.88,-124.5C137.88,-124.5 21.38,-124.5 21.38,-124.5 15.38,-124.5 9.38,-118.5 9.38,-112.5 9.38,-112.5 9.38,-100.5 9.38,-100.5 9.38,-94.5 15.38,-88.5 21.38,-88.5 21.38,-88.5 137.88,-88.5 137.88,-88.5 143.88,-88.5 149.88,-94.5 149.88,-100.5 149.88,-100.5 149.88,-112.5 149.88,-112.5 149.88,-118.5 143.88,-124.5 137.88,-124.5"/>
<text text-anchor="middle" x="79.62" y="-102.22" font-family="Times New Roman,serif" font-size="12.00">Media Server Locates File</text>
</g>
<!-- request&#45;&gt;server -->
<g id="edge1" class="edge">
<title>request&#45;&gt;server</title>
<path fill="none" stroke="black" d="M79.62,-176.91C79.62,-165.26 79.62,-149.55 79.62,-136.02"/>
<polygon fill="black" stroke="black" points="83.13,-136.36 79.63,-126.36 76.13,-136.36 83.13,-136.36"/>
<text text-anchor="middle" x="119" y="-145.7" font-family="Times New Roman,serif" font-size="14.00">Request Video</text>
</g>
<!-- stream -->
<g id="node3" class="node">
<title>stream</title>
<path fill="none" stroke="black" d="M147.25,-36C147.25,-36 12,-36 12,-36 6,-36 0,-30 0,-24 0,-24 0,-12 0,-12 0,-6 6,0 12,0 12,0 147.25,0 147.25,0 153.25,0 159.25,-6 159.25,-12 159.25,-12 159.25,-24 159.25,-24 159.25,-30 153.25,-36 147.25,-36"/>
<text text-anchor="middle" x="79.62" y="-13.72" font-family="Times New Roman,serif" font-size="12.00">File Streams Directly to Client</text>
</g>
<!-- server&#45;&gt;stream -->
<g id="edge2" class="edge">
<title>server&#45;&gt;stream</title>
<path fill="none" stroke="green" d="M79.62,-88.41C79.62,-76.76 79.62,-61.05 79.62,-47.52"/>
<polygon fill="green" stroke="green" points="83.13,-47.86 79.63,-37.86 76.13,-47.86 83.13,-47.86"/>
<text text-anchor="middle" x="139.25" y="-57.2" font-family="Times New Roman,serif" font-size="14.00">Send Compatible File</text>
</g>
</g>
</svg>
