<?xml version="1.0" encoding="UTF-8" standalone="no"?>
<!DOCTYPE svg PUBLIC "-//W3C//DTD SVG 1.1//EN"
 "http://www.w3.org/Graphics/SVG/1.1/DTD/svg11.dtd">
<!-- Generated by graphviz version 12.2.0 (0)
 -->
<!-- Title: Transcoding Pages: 1 -->
<svg width="432pt" height="425pt"
 viewBox="0.00 0.00 432.00 424.68" xmlns="http://www.w3.org/2000/svg" xmlns:xlink="http://www.w3.org/1999/xlink">
<g id="graph0" class="graph" transform="scale(0.87203 0.87203) rotate(0) translate(4 483)">
<title>Transcoding</title>
<polygon fill="white" stroke="none" points="-4,4 -4,-483 491.4,-483 491.4,4 -4,4"/>
<!-- request -->
<g id="node1" class="node">
<title>request</title>
<path fill="none" stroke="black" d="M280.5,-479C280.5,-479 182.75,-479 182.75,-479 176.75,-479 170.75,-473 170.75,-467 170.75,-467 170.75,-455 170.75,-455 170.75,-449 176.75,-443 182.75,-443 182.75,-443 280.5,-443 280.5,-443 286.5,-443 292.5,-449 292.5,-455 292.5,-455 292.5,-467 292.5,-467 292.5,-473 286.5,-479 280.5,-479"/>
<text text-anchor="middle" x="231.62" y="-456.73" font-family="Times New Roman,serif" font-size="12.00">Client Requests Video</text>
</g>
<!-- server -->
<g id="node2" class="node">
<title>server</title>
<path fill="none" stroke="black" d="M289.88,-390.5C289.88,-390.5 173.38,-390.5 173.38,-390.5 167.38,-390.5 161.38,-384.5 161.38,-378.5 161.38,-378.5 161.38,-366.5 161.38,-366.5 161.38,-360.5 167.38,-354.5 173.38,-354.5 173.38,-354.5 289.88,-354.5 289.88,-354.5 295.88,-354.5 301.88,-360.5 301.88,-366.5 301.88,-366.5 301.88,-378.5 301.88,-378.5 301.88,-384.5 295.88,-390.5 289.88,-390.5"/>
<text text-anchor="middle" x="231.62" y="-368.23" font-family="Times New Roman,serif" font-size="12.00">Media Server Locates File</text>
</g>
<!-- request&#45;&gt;server -->
<g id="edge1" class="edge">
<title>request&#45;&gt;server</title>
<path fill="none" stroke="black" d="M231.62,-442.91C231.62,-431.26 231.62,-415.55 231.62,-402.02"/>
<polygon fill="black" stroke="black" points="235.13,-402.36 231.63,-392.36 228.13,-402.36 235.13,-402.36"/>
<text text-anchor="middle" x="271" y="-411.7" font-family="Times New Roman,serif" font-size="14.00">Request Video</text>
</g>
<!-- check -->
<g id="node3" class="node">
<title>check</title>
<path fill="none" stroke="black" d="M276.75,-302C276.75,-302 186.5,-302 186.5,-302 180.5,-302 174.5,-296 174.5,-290 174.5,-290 174.5,-278 174.5,-278 174.5,-272 180.5,-266 186.5,-266 186.5,-266 276.75,-266 276.75,-266 282.75,-266 288.75,-272 288.75,-278 288.75,-278 288.75,-290 288.75,-290 288.75,-296 282.75,-302 276.75,-302"/>
<text text-anchor="middle" x="231.62" y="-279.73" font-family="Times New Roman,serif" font-size="12.00">Check Compatibility</text>
</g>
<!-- server&#45;&gt;check -->
<g id="edge2" class="edge">
<title>server&#45;&gt;check</title>
<path fill="none" stroke="black" d="M231.62,-354.41C231.62,-342.76 231.62,-327.05 231.62,-313.52"/>
<polygon fill="black" stroke="black" points="235.13,-313.86 231.63,-303.86 228.13,-313.86 235.13,-313.86"/>
<text text-anchor="middle" x="262.38" y="-323.2" font-family="Times New Roman,serif" font-size="14.00">Locate File</text>
</g>
<!-- transcode_video -->
<g id="node4" class="node">
<title>transcode_video</title>
<path fill="none" stroke="black" d="M135.25,-213.5C135.25,-213.5 12,-213.5 12,-213.5 6,-213.5 0,-207.5 0,-201.5 0,-201.5 0,-189 0,-189 0,-183 6,-177 12,-177 12,-177 135.25,-177 135.25,-177 141.25,-177 147.25,-183 147.25,-189 147.25,-189 147.25,-201.5 147.25,-201.5 147.25,-207.5 141.25,-213.5 135.25,-213.5"/>
<text text-anchor="middle" x="73.62" y="-198.1" font-family="Times New Roman,serif" font-size="12.00">Transcode Video Stream</text>
<text text-anchor="middle" x="73.62" y="-183.85" font-family="Times New Roman,serif" font-size="12.00">(e.g., Format or Resolution)</text>
</g>
<!-- check&#45;&gt;transcode_video -->
<g id="edge3" class="edge">
<title>check&#45;&gt;transcode_video</title>
<path fill="none" stroke="red" d="M174.03,-271.43C155.7,-266.11 135.97,-258.56 119.62,-248 109.33,-241.35 99.93,-231.78 92.36,-222.68"/>
<polygon fill="red" stroke="red" points="95.29,-220.74 86.35,-215.05 89.78,-225.07 95.29,-220.74"/>
<text text-anchor="middle" x="173.62" y="-234.7" font-family="Times New Roman,serif" font-size="14.00">Video Incompatible</text>
</g>
<!-- transcode_audio -->
<g id="node5" class="node">
<title>transcode_audio</title>
<path fill="none" stroke="black" d="M286.12,-213.5C286.12,-213.5 177.12,-213.5 177.12,-213.5 171.12,-213.5 165.12,-207.5 165.12,-201.5 165.12,-201.5 165.12,-189 165.12,-189 165.12,-183 171.12,-177 177.12,-177 177.12,-177 286.12,-177 286.12,-177 292.12,-177 298.12,-183 298.12,-189 298.12,-189 298.12,-201.5 298.12,-201.5 298.12,-207.5 292.12,-213.5 286.12,-213.5"/>
<text text-anchor="middle" x="231.62" y="-198.1" font-family="Times New Roman,serif" font-size="12.00">Transcode Audio Stream</text>
<text text-anchor="middle" x="231.62" y="-183.85" font-family="Times New Roman,serif" font-size="12.00">(e.g., Codec or Bitrate)</text>
</g>
<!-- check&#45;&gt;transcode_audio -->
<g id="edge4" class="edge">
<title>check&#45;&gt;transcode_audio</title>
<path fill="none" stroke="red" d="M231.62,-265.86C231.62,-254.25 231.62,-238.62 231.62,-225.12"/>
<polygon fill="red" stroke="red" points="235.13,-225.46 231.63,-215.46 228.13,-225.46 235.13,-225.46"/>
<text text-anchor="middle" x="286.38" y="-234.7" font-family="Times New Roman,serif" font-size="14.00">Audio Incompatible</text>
</g>
<!-- transcode_subtitles -->
<g id="node6" class="node">
<title>transcode_subtitles</title>
<path fill="none" stroke="black" d="M455.12,-213.25C455.12,-213.25 328.12,-213.25 328.12,-213.25 322.12,-213.25 316.12,-207.25 316.12,-201.25 316.12,-201.25 316.12,-189.25 316.12,-189.25 316.12,-183.25 322.12,-177.25 328.12,-177.25 328.12,-177.25 455.12,-177.25 455.12,-177.25 461.12,-177.25 467.12,-183.25 467.12,-189.25 467.12,-189.25 467.12,-201.25 467.12,-201.25 467.12,-207.25 461.12,-213.25 455.12,-213.25"/>
<text text-anchor="middle" x="391.62" y="-190.97" font-family="Times New Roman,serif" font-size="12.00">Burn&#45;In or Convert Subtitles</text>
</g>
<!-- check&#45;&gt;transcode_subtitles -->
<g id="edge5" class="edge">
<title>check&#45;&gt;transcode_subtitles</title>
<path fill="none" stroke="red" d="M289.08,-271.91C308.06,-266.59 328.64,-258.91 345.62,-248 356.09,-241.28 365.62,-231.53 373.25,-222.3"/>
<polygon fill="red" stroke="red" points="375.88,-224.61 379.28,-214.58 370.37,-220.31 375.88,-224.61"/>
<text text-anchor="middle" x="425.9" y="-234.7" font-family="Times New Roman,serif" font-size="14.00">Subtitles Incompatible</text>
</g>
<!-- assemble -->
<g id="node7" class="node">
<title>assemble</title>
<path fill="none" stroke="black" d="M300,-124.5C300,-124.5 163.25,-124.5 163.25,-124.5 157.25,-124.5 151.25,-118.5 151.25,-112.5 151.25,-112.5 151.25,-100.5 151.25,-100.5 151.25,-94.5 157.25,-88.5 163.25,-88.5 163.25,-88.5 300,-88.5 300,-88.5 306,-88.5 312,-94.5 312,-100.5 312,-100.5 312,-112.5 312,-112.5 312,-118.5 306,-124.5 300,-124.5"/>
<text text-anchor="middle" x="231.62" y="-102.22" font-family="Times New Roman,serif" font-size="12.00">Assemble Transcoded Streams</text>
</g>
<!-- transcode_video&#45;&gt;assemble -->
<g id="edge6" class="edge">
<title>transcode_video&#45;&gt;assemble</title>
<path fill="none" stroke="green" d="M100.23,-176.66C116.41,-166.25 137.64,-153.07 157.12,-142.5 165.16,-138.14 173.84,-133.77 182.33,-129.68"/>
<polygon fill="green" stroke="green" points="183.64,-132.93 191.17,-125.48 180.63,-126.6 183.64,-132.93"/>
<text text-anchor="middle" x="192.38" y="-145.7" font-family="Times New Roman,serif" font-size="14.00">Video Ready</text>
</g>
<!-- transcode_audio&#45;&gt;assemble -->
<g id="edge7" class="edge">
<title>transcode_audio&#45;&gt;assemble</title>
<path fill="none" stroke="green" d="M231.62,-176.69C231.62,-164.98 231.62,-149.31 231.62,-135.84"/>
<polygon fill="green" stroke="green" points="235.13,-136.25 231.63,-126.25 228.13,-136.25 235.13,-136.25"/>
<text text-anchor="middle" x="267.62" y="-145.7" font-family="Times New Roman,serif" font-size="14.00">Audio Ready</text>
</g>
<!-- transcode_subtitles&#45;&gt;assemble -->
<g id="edge8" class="edge">
<title>transcode_subtitles&#45;&gt;assemble</title>
<path fill="none" stroke="green" d="M365.25,-176.86C348.94,-166.4 327.4,-153.1 307.62,-142.5 299.52,-138.16 290.78,-133.83 282.22,-129.76"/>
<polygon fill="green" stroke="green" points="283.82,-126.65 273.28,-125.6 280.86,-132.99 283.82,-126.65"/>
<text text-anchor="middle" x="378.64" y="-145.7" font-family="Times New Roman,serif" font-size="14.00">Subtitles Ready</text>
</g>
<!-- stream -->
<g id="node8" class="node">
<title>stream</title>
<path fill="none" stroke="black" d="M265.88,-36C265.88,-36 197.38,-36 197.38,-36 191.38,-36 185.38,-30 185.38,-24 185.38,-24 185.38,-12 185.38,-12 185.38,-6 191.38,0 197.38,0 197.38,0 265.88,0 265.88,0 271.88,0 277.88,-6 277.88,-12 277.88,-12 277.88,-24 277.88,-24 277.88,-30 271.88,-36 265.88,-36"/>
<text text-anchor="middle" x="231.62" y="-13.72" font-family="Times New Roman,serif" font-size="12.00">Stream to Client</text>
</g>
<!-- assemble&#45;&gt;stream -->
<g id="edge9" class="edge">
<title>assemble&#45;&gt;stream</title>
<path fill="none" stroke="black" d="M231.62,-88.41C231.62,-76.76 231.62,-61.05 231.62,-47.52"/>
<polygon fill="black" stroke="black" points="235.13,-47.86 231.63,-37.86 228.13,-47.86 235.13,-47.86"/>
<text text-anchor="middle" x="290.5" y="-57.2" font-family="Times New Roman,serif" font-size="14.00">Send Transcoded File</text>
</g>
</g>
</svg>
